grf
version=1
nRows=7
nColumns=37
inDegrees=no
endheader
time	ground_force_1_vx	ground_force_1_vy	ground_force_1_vz	ground_force_1_px	ground_force_1_py	ground_force_1_pz	ground_moment_1_mx	ground_moment_1_my	ground_moment_1_mz	ground_force_2_vx	ground_force_2_vy	ground_force_2_vz	ground_force_2_px	ground_force_2_py	ground_force_2_pz	ground_moment_2_mx	ground_moment_2_my	ground_moment_2_mz	ground_force_3_vx	ground_force_3_vy	ground_force_3_vz	ground_force_3_px	ground_force_3_py	ground_force_3_pz	ground_moment_3_mx	ground_moment_3_my	ground_moment_3_mz	ground_force_4_vx	ground_force_4_vy	ground_force_4_vz	ground_force_4_px	ground_force_4_py	ground_force_4_pz	ground_moment_4_mx	ground_moment_4_my	ground_moment_4_mz
      0.00000000	      0.00000000	     -0.00000000	      0.00000000	      0.00000000	      0.00000000	      0.00000000	      0.00000000	      0.00000000	      0.00000000	     -6.68112278	     11.13164330	   -197.58943176	   -271.50363748	  -1014.05862569	      0.00000000	      0.00000000	      0.00000000	   1597.85680955	      6.08211453	     -7.40910965	   -574.42932129	   -371.26451002	   -805.90814565	      0.00000000	      0.00000000	     -0.00000000	  -1563.00354712	      0.00000000	     -0.00000000	      0.00000000	      0.00000000	      0.00000000	      0.00000000	      0.00000000	      0.00000000	      0.00000000
      0.01000000	      0.00000000	     -0.00000000	      0.00000000	      0.00000000	      0.00000000	      0.00000000	      0.00000000	      0.00000000	      0.00000000	     -7.25799847	     11.38008499	   -198.41156006	   -271.39504518	  -1011.21617368	      0.00000000	      0.00000000	      0.00000000	   1359.20452857	      6.30830082	     -7.23258646	   -571.98779297	   -369.96578754	   -806.09981368	      0.00000000	     -0.00000000	     -0.00000000	  -1619.24660000	      0.00000000	     -0.00000000	      0.00000000	      0.00000000	      0.00000000	      0.00000000	      0.00000000	      0.00000000	      0.00000000
      0.02000000	      0.00000000	     -0.00000000	      0.00000000	      0.00000000	      0.00000000	      0.00000000	      0.00000000	      0.00000000	      0.00000000	     -6.73784018	     11.57754993	   -199.54666138	   -271.30672629	  -1011.82228195	      0.00000000	      0.00000000	      0.00000000	   1784.39832222	      6.45648131	     -7.09471616	   -569.54266357	   -369.51494802	   -805.84797922	      0.00000000	      0.00000000	     -0.00000000	  -1542.03520997	      0.00000000	     -0.00000000	      0.00000000	      0.00000000	      0.00000000	      0.00000000	      0.00000000	      0.00000000	      0.00000000
      0.03000000	      0.00000000	     -0.00000000	      0.00000000	      0.00000000	      0.00000000	      0.00000000	      0.00000000	      0.00000000	      0.00000000	     -7.26881218	     11.73736858	   -202.18820190	   -269.84812438	  -1014.80000794	      0.00000000	      0.00000000	      0.00000000	   1468.95990889	      6.04191575	     -7.07527643	   -567.37133789	   -368.29521608	   -805.88770088	      0.00000000	      0.00000000	     -0.00000000	  -1470.84910951	      0.00000000	     -0.00000000	      0.00000000	      0.00000000	      0.00000000	      0.00000000	      0.00000000	      0.00000000	      0.00000000
      0.04000000	      0.00000000	     -0.00000000	      0.00000000	      0.00000000	      0.00000000	      0.00000000	      0.00000000	      0.00000000	      0.00000000	     -7.73377609	     11.43620491	   -203.88362122	   -270.43357706	  -1016.06079900	      0.00000000	      0.00000000	      0.00000000	   1519.32490694	      5.92467580	     -7.10689930	   -566.87310791	   -368.06265481	   -804.56857002	      0.00000000	      0.00000000	     -0.00000000	  -1510.93669177	      0.00000000	     -0.00000000	      0.00000000	      0.00000000	      0.00000000	      0.00000000	      0.00000000	      0.00000000	      0.00000000
      0.05000000	      0.00000000	     -0.00000000	      0.00000000	      0.00000000	      0.00000000	      0.00000000	      0.00000000	      0.00000000	      0.00000000	     -8.12721443	     11.99640560	   -203.67724609	   -271.83805807	  -1015.12872695	      0.00000000	      0.00000000	      0.00000000	   1447.47568949	      5.11262783	     -7.19582269	   -564.43090820	   -367.12054149	   -806.04589732	      0.00000000	      0.00000000	     -0.00000000	  -1394.43334050	      0.00000000	     -0.00000000	      0.00000000	      0.00000000	      0.00000000	      0.00000000	      0.00000000	      0.00000000	      0.00000000
      0.06000000	      0.00000000	     -0.00000000	      0.00000000	      0.00000000	      0.00000000	      0.00000000	      0.00000000	      0.00000000	      0.00000000	     -7.93081093	     12.13956738	   -205.37406921	   -268.65759390	  -1015.79386273	      0.00000000	      0.00000000	      0.00000000	   1420.58417844	      5.02885571	     -6.49337860	   -562.51953125	   -366.66668158	   -805.94971814	      0.00000000	      0.00000000	     -0.00000000	  -1621.53793579	      0.00000000	     -0.00000000	      0.00000000	      0.00000000	      0.00000000	      0.00000000	      0.00000000	      0.00000000	      0.00000000
